<svg fill="#fff" version="1.1" id="Layer_1" xmlns="http://www.w3.org/2000/svg" xmlns:xlink="http://www.w3.org/1999/xlink" width="800px" height="800px" viewBox="0 0 92 92" enable-background="new 0 0 92 92" xml:space="preserve">

<g id="SVGRepo_bgCarrier" stroke-width="0"/>

    <g id="SVGRepo_tracerCarrier" stroke-linecap="round" stroke-linejoin="round"/>

    <g id="SVGRepo_iconCarrier">
  <path id="XMLID_30_" d="M25,46c-1.4,0-2.8-0.6-3.8-1.6c-1-1-1.6-2.4-1.6-3.8c0-1.4,0.6-2.8,1.6-3.8c1-1,2.4-1.6,3.8-1.6 c1.4,0,2.8,0.6,3.8,1.6c1,1,1.6,2.4,1.6,3.8c0,1.4-0.6,2.8-1.6,3.8C27.8,45.4,26.4,46,25,46z M46,46c1.4,0,2.8-0.6,3.8-1.6 c1-1,1.6-2.4,1.6-3.8c0-1.4-0.6-2.8-1.6-3.8c-1-1-2.4-1.6-3.8-1.6c-1.4,0-2.8,0.6-3.8,1.6c-1,1-1.6,2.4-1.6,3.8 c0,1.4,0.6,2.8,1.6,3.8C43.2,45.4,44.6,46,46,46z M67,46c1.4,0,2.8-0.6,3.8-1.6c1-1,1.6-2.4,1.6-3.8c0-1.4-0.6-2.8-1.6-3.8 c-1-1-2.4-1.6-3.8-1.6c-1.4,0-2.8,0.6-3.8,1.6c-1,1-1.6,2.4-1.6,3.8c0,1.4,0.6,2.8,1.6,3.8C64.2,45.4,65.6,46,67,46z"/>
</g>

</svg>
